<svg xmlns="http://www.w3.org/2000/svg" xmlns:xlink="http://www.w3.org/1999/xlink" width="1080" zoomAndPan="magnify" viewBox="0 0 810 809.999993" height="1080" preserveAspectRatio="xMidYMid meet" version="1.0"><defs><g/></defs><g fill="#000000" fill-opacity="1"><g transform="translate(169.855073, 660.922738)"><g><path d="M 250.6875 9.453125 C 225.90625 9.453125 200.789062 6.410156 175.34375 0.328125 C 149.894531 -5.742188 126.359375 -15.535156 104.734375 -29.046875 C 83.109375 -42.566406 64.972656 -60.703125 50.328125 -83.453125 C 35.691406 -106.203125 26.800781 -134.242188 23.65625 -167.578125 L 124.328125 -167.578125 C 130.179688 -143.253906 139.640625 -124.222656 152.703125 -110.484375 C 165.765625 -96.742188 180.96875 -87.171875 198.3125 -81.765625 C 215.65625 -76.359375 233.335938 -73.65625 251.359375 -73.65625 C 277.941406 -73.65625 300.238281 -79.285156 318.25 -90.546875 C 336.269531 -101.804688 345.28125 -119.820312 345.28125 -144.59375 C 345.28125 -162.613281 339.421875 -176.578125 327.703125 -186.484375 C 315.992188 -196.398438 300.789062 -204.171875 282.09375 -209.796875 C 263.40625 -215.429688 243.023438 -220.503906 220.953125 -225.015625 C 199.785156 -229.960938 178.613281 -235.363281 157.4375 -241.21875 C 136.269531 -247.082031 116.785156 -255.191406 98.984375 -265.546875 C 81.191406 -275.910156 67.003906 -289.765625 56.421875 -307.109375 C 45.835938 -324.453125 40.546875 -346.632812 40.546875 -373.65625 C 40.546875 -407 48.539062 -434.816406 64.53125 -457.109375 C 80.519531 -479.410156 102.253906 -496.300781 129.734375 -507.78125 C 157.210938 -519.269531 188.296875 -525.015625 222.984375 -525.015625 C 256.316406 -525.015625 287.625 -519.160156 316.90625 -507.453125 C 346.1875 -495.742188 370.960938 -477.953125 391.234375 -454.078125 C 411.503906 -430.203125 424.34375 -399.566406 429.75 -362.171875 L 330.421875 -362.171875 C 324.109375 -389.648438 310.929688 -409.804688 290.890625 -422.640625 C 270.847656 -435.484375 247.535156 -441.90625 220.953125 -441.90625 C 196.628906 -441.90625 176.582031 -436.835938 160.8125 -426.703125 C 145.050781 -416.566406 137.171875 -401.585938 137.171875 -381.765625 C 137.171875 -366.003906 142.6875 -353.617188 153.71875 -344.609375 C 164.757812 -335.597656 179.285156 -328.5 197.296875 -323.3125 C 215.316406 -318.132812 234.691406 -313.070312 255.421875 -308.125 C 277.035156 -303.613281 298.765625 -298.09375 320.609375 -291.5625 C 342.460938 -285.03125 362.734375 -276.242188 381.421875 -265.203125 C 400.117188 -254.171875 415.097656 -239.421875 426.359375 -220.953125 C 437.628906 -202.484375 443.265625 -178.609375 443.265625 -149.328125 C 443.265625 -100.679688 426.367188 -62.054688 392.578125 -33.453125 C 358.796875 -4.847656 311.5 9.453125 250.6875 9.453125 Z M 250.6875 9.453125 "/></g></g></g></svg>